<svg id="Layer_1" data-name="Layer 1" xmlns="http://www.w3.org/2000/svg" viewBox="0 0 1920 1080"><defs><style>.cls-1,.cls-2{fill:#ffffff;}.cls-2{fill-rule:evenodd;}</style></defs><path class="cls-1" d="M640.78,574.1c-44.29,18.78-81.18,44.52-107,73.47,29.86-21.85,66.2-40.14,107-52.77Z"/><path class="cls-1" d="M784.9,585.38l-.3,87.24h34.59l.3-82.63A309.8,309.8,0,0,0,784.9,585.38Z"/><path class="cls-1" d="M683.63,591.79l.26-38.92.79-120.68L784.9,447.66v87.61c2.49,0,5-.09,7.47-.09,9.17,0,18.23.36,27.12,1.07V413.08l-171-39V672.62H683.1l.53-80.83Z"/><path class="cls-1" d="M898.39,561.8c-52.17-21.14-122.54-25.54-195.64-8q-5.62,1.35-11.15,2.84l-.17,25.94c88-15.45,170,0,220.93,37.53Z"/><path class="cls-1" d="M680.5,544.75c75.31-18,161-9.52,217.8,10L893.55,535c-52.17-21.14-122.55-25.54-195.64-8-59.65,14.29-111,40.77-148,73.11C586.19,576.12,630.74,556.68,680.5,544.75Z"/><path class="cls-2" d="M1152.55,537c1.27,3.33,1.19,19-2.42,20.89-6.47,3.37-57.72,6.18-65.33,7-12.65-1.54-79.3-7.84-87.72-14.43-3.81-3-1.32-24.21-1.32-24.21,9,4.73,16.23,7.64,26.37,8.33,20.37,1.39,92,4.67,116.37,5.75,8,.35,6.81.22,14-3.34ZM1097.8,420.54v9.89c-1.94-4.73-4.51-9.81-8.16-12.11,3.61.88,7,1.58,8.16,2.22ZM911,619.22h0l46.77,41.15H1148.1l-22.53-16.16a42.61,42.61,0,0,0,.81-5.52,49.82,49.82,0,0,0-.22-6.24h0c-.44,7.72-1.81,14.08-3.84,17.9h-3.74c1-2.83,1.65-8.15,1.74-11.67a37,37,0,0,0-.23-6.24h0c-.44,7.73-1.81,14.09-3.85,17.91h-4.46c1.16-2.81,1.87-8.55,2-12.23a36.35,36.35,0,0,0-.22-6.24h0c-.46,8.12-2,14.76-4.16,18.47l-6.69.28c3.89-7.7,4.47-13.3,3.75-21.36,6.1.42,10.46,1,11.6,1.55,3.47,1.8,33.51-.92,34.55-4.36a118.82,118.82,0,0,0,4.14-24.24c.81-6.57-1.65-9.27-2.3-10.88,1.06-14.19,4.46-35.51,3.8-49.06a7.15,7.15,0,0,0,2.93-1.37c2.84-2.2,1-11.53,1-16.16a1.48,1.48,0,0,0,0-2.93c2.65-.6,2.43-7.27-1-7.53.4-3.68,1.39-10.75-3.62-11.19l-4.33-.38c-1.74-.15-2.31-.1-2.4,1.73l-.14,2.93c-4.95-14.06-11.71-32.92-15.14-35.95-2.45-2.16-8-4.21-15.54-6.12a11.44,11.44,0,0,0-.53-1.15c-1.54-3.1-17.25-6.28-17.25-6.28v-3.77c2.2-4.8,1.64-8.39,0-12.85V420.65l.6-.13s.25-1-.24-5.14S1094,411,1094,411s-130.1-22-141-24.2-11.44,3.15-11.44,3.15l-42.82,61.65v1.14L941,396l-.09,2.38-42,57.77v1.13l41.81-53.45V573l9.25,1.16L952.73,396c.17.14,11.2,2.33,19.35,3.49-4.21,2.62-4.65,14.45-3.69,19.79h.05c-.13-6,1.23-20,9.2-19,15,1.89,51,50.79,52.43,51.59,3,1.75,14.49,1.86,22.24,3.29-26.27-2.6-51.18-4.06-61.93-3.95-5.27.05-16.27,9.61-21.3,13.85,0,0,15.58-9.37,21.14-9.95,21.85-2.29,136.1,11,142.77,17.66,5.5,5.5,15.81,37.58,18.57,45.89l2.36,9.66.65,3.63s1.33,8,1.41,11.36-.41,15.59-2.07,18-68.57,7.21-68.57,7.21c-12.67-1.66-96.67-9.44-100.15-17.41-.28,7.47,2,8.75,8.73,10.08,20.74,4.08,91.09,11,91.09,11s47.92-4,59.61-5.55c5-.67,7.77-1.17,9.4-2-.13.86-.3,2-.49,3.4-3.31.76-10.66,1.9-10.66,1.9-.95,5.14-5.77,26.13-5.77,26.13,3.78-.14,9-.25,12-1.05a3.55,3.55,0,0,0,2.71-2.68c.18.64,3.26,4,1.92,9.58a10.42,10.42,0,0,1-2.27.4c-3.11.27-64.51,5.87-64.51,5.87s-88-4.56-90.37-4.56-4.64-.25-11.48-2.8c0,0-.83.41-.66,9.7.12,7.18-1.83,20.56,7.79,21.22,6,.42,18.57.75,18.57.75s25.9,1.22,30.1-1.33c3.75-2.28,23.17-3,41.59-2.75a46.62,46.62,0,0,0,1.27,12.36l-89.13,0a32.86,32.86,0,0,0-.53-6.34h0c-.4,7.15-1.74,13.38-3.55,17.29h-3.88a42.22,42.22,0,0,0,1.59-11.06,51.8,51.8,0,0,0-.22-6.24h0c-.4,7.16-1.74,13.39-3.55,17.3H979.9a40.46,40.46,0,0,0,1.76-11.62,51.8,51.8,0,0,0-.22-6.24h0c-.43,7.51-1.88,14-3.82,17.86h-5.08a38,38,0,0,0,2.08-12.45,51.8,51.8,0,0,0-.22-6.24h0c-.45,8.08-2.1,15-4.27,18.69h-5.87c2.88-5.29,4.88-17,4.88-30.65a127.51,127.51,0,0,0-.65-13.11c-.37-6.07-1.23-19.36-2.14-26.87-1.2-9.95-8.95-10.78-8.95-10.78-.54,1.7-.17,3.9.41,4.36,2.49,2,5.83,1.37,7.06,5.74a50.19,50.19,0,0,1,1.27,7.59c-1.62-.18-3.74-.59-5.32-.59-4.6,0-8.33,15.07-8.33,33.66,0,3,.1,5.88.28,8.64h0l-6,.07-12.55-10.38h0a17.18,17.18,0,0,0,.4-2.52l3.76,3.07,12.43.66,2-42.62s-8.29-.91-10.77-1.32S898.69,562,898.69,562v22.24l2.82,2.49v3.15l8,6.55a70.19,70.19,0,0,0-.52,8.9c0,7,.85,12.83,2,13.88Zm242.78-15.05c-.67,6.19-1.92,15.17-2.92,19.81-.45,2.07-3.51,2.9-6.78,2.83L1147.4,605a21.74,21.74,0,0,0,6.35-.79Zm-166,.93c4,2.32,10.08,2.2,17.29,2.67l.43,21.36c-.38.08-.27.21-7.17.11s-8.62-1.62-9.94-4.26-.61-19.88-.61-19.88Zm51.17,4.12,49.5,3.25,34.08-3.25-33.57,6.7-50-6.7Zm0,5.69,49.5,3.24,34.08-3.24L1089,621.6l-50-6.69Zm-82.85-79.74c0-11.66.92-47.3,2.66-49,1.55-1.52,5-1.76,7.3-1.81a97.25,97.25,0,0,1,2.54-11c1.25-3.55,16.17-10,20.09-9.17,1.11.24,1.24,2.51,1,9.22-.33,10-3.4,58.37-3.4,58.37L973,531.7c-4.1,0-7.87-3.81-7.87-8.48l10.24.41.88-9.29,1.85.16s.22,3.1,2.67,3.1,2.83-1.38,3-3.92c.34-3.8-2.15-3.71-3-3.77a2.49,2.49,0,0,0-2.45,2l-1.78.07c.13-2.7,1.5-22.29,1-23.66-1-2.68-15.66-2.56-17.29-1-1,1-2.62,29.47-2,33.14.17,1,.31,1.4,1.27,1.8a23.14,23.14,0,0,0,2.65.8s1.35,6.58,5.33,8.4c-5.33-1-7.61-1.69-10.85-2.28l-.59,5.95Zm20.19-82.49-.26.25,7.06-10.72-6.23-16.76c4.81-1.56,23.57,4.61,49.17,24.95l-1.59-.3h0s-33-3-36.57-2.61-11.58,5.19-11.58,5.19Zm-36.5,125.83-.14,1.93L904,568.78s26.65,11.41,35.42,15.49l-.23,3.25-33.56-12.26s23.44,11,33.3,15.91l-.26,3.65-32.2-13.11s21.88,11.26,31.94,16.7l-.32,4.45L908.53,588s19.26,12,29.29,18.42l-.25,3.46-32.05-21.2c-4.37-2.89-5-8.41-5-12.38,0-4.57-.06-12.13-.06-12.13l39.36,13.45a.63.63,0,0,1,.07.54l-.07.38Zm14.24,39.31c.39,0,.71,1.39.71,3.1s-.32,3.1-.71,3.1-.7-1.39-.7-3.1.31-3.1.7-3.1ZM957.63,600c2.7,0,4.89,9.59,4.89,21.43s-2.19,21.43-4.89,21.43-4.89-9.59-4.89-21.43S954.93,600,957.63,600Zm-42.89,11.36c-.51,2.25-1.12,3.6-1.72,3.57-1.28-.05-2-6.38-1.69-14.14,0-.95.1-1.87.17-2.76l1.16,1c-.09,1.1-.14,2.32-.14,3.59,0,5,.82,9.07,1.81,9a.61.61,0,0,0,.41-.26Zm109.41-60.49,61.83,8.89,44-3.29-44.11-.67-61.68-4.93Zm0-12.71,61.83,8.89,44-3.29-44.11-.67-61.68-4.93Zm0,6.52,61.83,8.89,44-3.29-44.11-.67-61.68-4.93Zm-66.66,1.09c0-.83.55-2.89,1.32-2.69l8.08,2.13c.62.16.61,2.29.35,3.13l-2.26-.6,0,.08c-.46,1-2.1,1.42-3.67.88-1.4-.48-2.26-1.54-2.1-2.49l-1.68-.44Zm44.73-84c-3.63.18-5-.23-5.3,3.84-.77,9.1-2.21,43.55-2.14,47.75s2,6.29,5.85,6.74c19.44,2.28,130.16,7.3,148.49,8,3.27.13,3.51.29,2.87-3.29-1.84-10.26-14.26-40.85-17.61-47.54-.6-1.2-.71-1.24-2.09-1.72-13.76-4.8-106.71-14.93-130.07-13.76Zm-.93,25.52h-.07l1.14-19.46c.07-1.21,1.93-1.09,2.88-1.15,13.11-.78,69,4.53,79.67,6.29h0c-25.6-1-50.8-1.45-76.39-1.94-1.55,0-2.66-.07-3.33,1.49-1.43,3.34-3.44,12.53-3.9,14.76Zm150.81,43.42-153.2-8.08c7.89,4.1,14.52,6.77,23.59,7.38,38.56,2.62,77.62,4,116.24,5.74,6.18.27,5.45.3,9.71-1.91,2.32-1.2,3.22-2.13,3.66-3.13Zm-117.71,50.06,52.41,5.71c14.56-1.65,29.18-3.2,43.76-4.8-10.67,17-26.1,14.17-43.43,18.09-22.47-3.08-36.86.34-52.74-19Zm-45.34-17.73c-1.54-.25-1.39-.48-1.5.77-2.79,32.34,3.79,31.71,36.89,33.92,0,0-6.59-29.85-7.4-30l-28-4.7Zm31.36,31.23c-2.59-.17-5.19-.34-7.77-.55-3-.24-6.12-.52-9.12-1-3.31-.55-7.57-1.49-10-4-2-2.06-2.71-5.09-3-7.85q-.12-.89-.18-1.8l27.4,3.39.23,1c.84,3.62,1.68,7.24,2.49,10.87ZM1017,579.38l-26.81-3.31c-.06-3.16.13-6.42.37-9.5l24.2,4.06c0,.1,0,.2.08.29.32,1.1.61,2.21.89,3.32.43,1.71.85,3.43,1.27,5.14Zm68.33-3.76c18.61-1.81,38-4.54,56.61-5.39l-6.45,26-2.75.15,5.52-20.72-51.52,4.54-62-6.6,5.55,24.75-4-.55-7.15-30,66.17,7.83Zm-127.55-25,25.7,7-1.24,42.12s-1.43-.27-1.39,1.85,0,13.22,0,13.22l-10.7-4.86s-2.07-33.32-4.8-37.22-7.71-4.52-8.58-6.88-.75-12.15-.09-12.89,1.09-.84,1.14-2.3ZM970.26,612l10.42,4.5c-.26,12.9,3.88,14.25,3.88,14.7-11.86-4.87-13.17-5.77-14.3-19.2Zm186.79-78c1.79,0,2.19-.11,2.16-1.88l1.13,0s.9,5.83-.37,7-2.07,1-2.07,1l-.85-6.12Zm-11.93,37.15,8.46-1.1c-.14,1.11-.43,4.94-.9,9.13l-9.7,1.19,2.14-9.22Zm7.34,10c-.65,5.4-1.57,10.8-2.75,11.29-1.72.72-9.84,1.38-9.84,1.38l2.65-11.45Z"/></svg>